<svg id="Layer_1" data-name="Layer 1" xmlns="http://www.w3.org/2000/svg" viewBox="0 0 500 500"><defs><style>.cls-1{font-size:453.18px;fill:#79846d;font-family:Neou-Thin, Neou;font-weight:200;}.cls-2{fill:#2d3a2d;}</style></defs><title>logo</title><text class="cls-1" transform="translate(84.64 407.42) scale(1.02 1)">C</text><path class="cls-2" d="M96.17,285.17c114.1-33.47,218.24-101.47,292-194.4,8.47-10.67,22-32,3.29-40.68-17.67-8.18-39.56-7.85-56.16,1.13-13.86,7.51-30.55,22.84-41,34.62-41.11,46.49-64.76,101.86-87.23,159.54C183.89,305.07,161.5,364.55,143.42,426c-1.51,5.13,28.51,14.49,30.41,9.75,11.83-29.55,22.8-59.46,36.58-88.19,12.87-26.81,34.4-48.72,55.74-69.11,9.9-9.46,21.62-18.1,35.67-19,9.36-.6,25.9.85,27.73,12.6.49,3.11-.56,6.23-1.62,9.19-14.38,40.17-33.41,79.19-40,121.31-1.86,11.92-1.56,26.48,8.63,33.07,9.89,6.39,23.14,1.27,33-5.24a131,131,0,0,0,39-40.41,5.82,5.82,0,0,0,1.2-3.78c-.41-2.43-3.81-3.3-6-2.17s-3.48,3.45-4.73,5.58a86.5,86.5,0,0,1-45.51,37.61C308.27,429,301.66,430,297.86,426c-3.29-3.46-2.73-8.91-1.9-13.59a544.89,544.89,0,0,1,35.13-117.94c3.54-8.31,7.36-17.37,5-26.08-1.39-5.07-4.8-9.41-8.77-12.9A44.73,44.73,0,0,0,304.15,245c-17.12-2.4-39.49,5-53.77,14.71-22,14.89-35,35.26-47.83,58.45-19.5,35.35-25.56,76.26-39.17,114.22l7.42,1.95C200.73,334.79,230.64,234.14,285,144.54q3.24-5.35,6.6-10.63c14.45-22.78,30-47,52.21-63.09,6.92-5,24.84-16.32,37.42-14.56,15.53,2.18,12.33,10.14,7.6,20-1.6,3.32-5.38,7.53-8,10.83-4.33,5.42-8.82,10.7-13.37,15.93a573.94,573.94,0,0,1-114.26,100.3A583.09,583.09,0,0,1,94,277.35C89,278.82,91.1,286.66,96.17,285.17Z"/></svg>